HIERARCHY
ROOT Hips
{
	OFFSET 0.000000 100.481300 0.000000
	CHANNELS 6 Xposition Yposition Zposition Xrotation Yrotation Zrotation
	JOINT Spine
	{
		OFFSET -0.279200 12.230698 -2.892100
		CHANNELS 3 Xrotation Yrotation Zrotation
		JOINT Spine1
		{
			OFFSET -0.325700 14.269203 -3.374200
			CHANNELS 3 Xrotation Yrotation Zrotation
			JOINT Spine2
			{
				OFFSET -0.372300 16.307602 -0.352600
				CHANNELS 3 Xrotation Yrotation Zrotation
				JOINT Neck
				{
					OFFSET -0.418800 17.814194 8.416900
					CHANNELS 3 Xrotation Yrotation Zrotation
					JOINT Head
					{
						OFFSET 0.000000 7.031097 3.806800
						CHANNELS 3 Xrotation Yrotation Zrotation
						JOINT HeadTop_End
						{
							OFFSET 0.000000 24.646606 12.978600
							CHANNELS 3 Xrotation Yrotation Zrotation
							End Site
							{
								OFFSET 0.000000 27.854965 0.000000
							}
						}
					}
				}
				JOINT LeftShoulder
				{
					OFFSET 16.952999 14.495407 -7.737500
					CHANNELS 3 Xrotation Yrotation Zrotation
					JOINT LeftArm
					{
						OFFSET 9.308998 -2.777710 0.208600
						CHANNELS 3 Xrotation Yrotation Zrotation
						JOINT LeftForeArm
						{
							OFFSET 29.972298 0.000000 0.000000
							CHANNELS 3 Xrotation Yrotation Zrotation
							JOINT LeftHand
							{
								OFFSET 26.026505 0.000000 0.000000
								CHANNELS 3 Xrotation Yrotation Zrotation
								JOINT LeftHandThumb1
								{
									OFFSET 12.240501 -7.147949 9.207150
									CHANNELS 3 Xrotation Yrotation Zrotation
									JOINT LeftHandThumb2
									{
										OFFSET 4.138618 -2.389435 2.389433
										CHANNELS 3 Xrotation Yrotation Zrotation
										JOINT LeftHandThumb3
										{
											OFFSET 2.726913 -1.574387 1.574386
											CHANNELS 3 Xrotation Yrotation Zrotation
											JOINT LeftHandThumb4
											{
												OFFSET 3.941010 -2.275345 2.275342
												CHANNELS 3 Xrotation Yrotation Zrotation
												End Site
												{
													OFFSET -0.005798 5.087799 0.009903
												}
											}
										}
									}
								}
								JOINT LeftHandIndex1
								{
									OFFSET 24.424698 -1.985611 5.953459
									CHANNELS 3 Xrotation Yrotation Zrotation
									JOINT LeftHandIndex2
									{
										OFFSET 6.426697 0.000000 0.000000
										CHANNELS 3 Xrotation Yrotation Zrotation
										JOINT LeftHandIndex3
										{
											OFFSET 5.337898 0.000000 0.000000
											CHANNELS 3 Xrotation Yrotation Zrotation
											JOINT LeftHandIndex4
											{
												OFFSET 4.409401 0.000000 0.000000
												CHANNELS 3 Xrotation Yrotation Zrotation
												End Site
												{
													OFFSET 0.000000 4.409363 0.014373
												}
											}
										}
									}
								}
								JOINT LeftHandMiddle1
								{
									OFFSET 23.810104 0.000000 0.000000
									CHANNELS 3 Xrotation Yrotation Zrotation
									JOINT LeftHandMiddle2
									{
										OFFSET 7.176498 0.000000 0.000000
										CHANNELS 3 Xrotation Yrotation Zrotation
										JOINT LeftHandMiddle3
										{
											OFFSET 6.774902 0.000000 0.000000
											CHANNELS 3 Xrotation Yrotation Zrotation
											JOINT LeftHandMiddle4
											{
												OFFSET 5.403328 0.000000 0.000000
												CHANNELS 3 Xrotation Yrotation Zrotation
												End Site
												{
													OFFSET -0.027702 5.403244 0.017414
												}
											}
										}
									}
								}
								JOINT LeftHandRing1
								{
									OFFSET 22.908401 -0.839279 -6.020567
									CHANNELS 3 Xrotation Yrotation Zrotation
									JOINT LeftHandRing2
									{
										OFFSET 6.337502 0.000000 0.000000
										CHANNELS 3 Xrotation Yrotation Zrotation
										JOINT LeftHandRing3
										{
											OFFSET 5.779297 0.000000 0.000000
											CHANNELS 3 Xrotation Yrotation Zrotation
											JOINT LeftHandRing4
											{
												OFFSET 4.965698 0.000000 0.000000
												CHANNELS 3 Xrotation Yrotation Zrotation
												End Site
												{
													OFFSET 0.000000 4.965668 0.016186
												}
											}
										}
									}
								}
								JOINT LeftHandPinky1
								{
									OFFSET 20.037003 -1.530319 -10.950146
									CHANNELS 3 Xrotation Yrotation Zrotation
									JOINT LeftHandPinky2
									{
										OFFSET 5.254700 0.000000 0.000000
										CHANNELS 3 Xrotation Yrotation Zrotation
										JOINT LeftHandPinky3
										{
											OFFSET 4.810204 0.000000 0.000000
											CHANNELS 3 Xrotation Yrotation Zrotation
											JOINT LeftHandPinky4
											{
												OFFSET 3.647202 0.000000 0.000000
												CHANNELS 3 Xrotation Yrotation Zrotation
												End Site
												{
													OFFSET 0.000000 3.647186 0.011889
												}
											}
										}
									}
								}
							}
						}
					}
				}
				JOINT RightShoulder
				{
					OFFSET -15.141001 14.495407 -7.737500
					CHANNELS 3 Xrotation Yrotation Zrotation
					JOINT RightArm
					{
						OFFSET -9.308998 -2.777710 0.208500
						CHANNELS 3 Xrotation Yrotation Zrotation
						JOINT RightForeArm
						{
							OFFSET -29.972300 0.000000 0.000000
							CHANNELS 3 Xrotation Yrotation Zrotation
							JOINT RightHand
							{
								OFFSET -26.026505 0.000000 0.000000
								CHANNELS 3 Xrotation Yrotation Zrotation
								JOINT RightHandThumb1
								{
									OFFSET -12.240601 -7.148026 9.207092
									CHANNELS 3 Xrotation Yrotation Zrotation
									JOINT RightHandThumb2
									{
										OFFSET -4.138618 -2.389435 2.389433
										CHANNELS 3 Xrotation Yrotation Zrotation
										JOINT RightHandThumb3
										{
											OFFSET -2.726974 -1.574417 1.574421
											CHANNELS 3 Xrotation Yrotation Zrotation
											JOINT RightHandThumb4
											{
												OFFSET -3.941010 -2.275345 2.275343
												CHANNELS 3 Xrotation Yrotation Zrotation
												End Site
												{
													OFFSET 0.005814 5.087799 0.009927
												}
											}
										}
									}
								}
								JOINT RightHandIndex1
								{
									OFFSET -24.424698 -1.985657 5.953444
									CHANNELS 3 Xrotation Yrotation Zrotation
									JOINT RightHandIndex2
									{
										OFFSET -6.426697 0.000000 0.000000
										CHANNELS 3 Xrotation Yrotation Zrotation
										JOINT RightHandIndex3
										{
											OFFSET -5.337898 0.000000 0.000000
											CHANNELS 3 Xrotation Yrotation Zrotation
											JOINT RightHandIndex4
											{
												OFFSET -4.409401 0.000000 0.000000
												CHANNELS 3 Xrotation Yrotation Zrotation
												End Site
												{
													OFFSET 0.000000 4.409363 0.014408
												}
											}
										}
									}
								}
								JOINT RightHandMiddle1
								{
									OFFSET -23.810097 0.000000 0.000000
									CHANNELS 3 Xrotation Yrotation Zrotation
									JOINT RightHandMiddle2
									{
										OFFSET -7.176498 0.000000 0.000000
										CHANNELS 3 Xrotation Yrotation Zrotation
										JOINT RightHandMiddle3
										{
											OFFSET -6.774902 0.000000 0.000000
											CHANNELS 3 Xrotation Yrotation Zrotation
											JOINT RightHandMiddle4
											{
												OFFSET -5.403328 0.000000 0.000000
												CHANNELS 3 Xrotation Yrotation Zrotation
												End Site
												{
													OFFSET 0.027702 5.403244 0.017457
												}
											}
										}
									}
								}
								JOINT RightHandRing1
								{
									OFFSET -22.908302 -0.839325 -6.020576
									CHANNELS 3 Xrotation Yrotation Zrotation
									JOINT RightHandRing2
									{
										OFFSET -6.337502 0.000000 0.000000
										CHANNELS 3 Xrotation Yrotation Zrotation
										JOINT RightHandRing3
										{
											OFFSET -5.779297 0.000000 0.000000
											CHANNELS 3 Xrotation Yrotation Zrotation
											JOINT RightHandRing4
											{
												OFFSET -4.965698 0.000000 0.000000
												CHANNELS 3 Xrotation Yrotation Zrotation
												End Site
												{
													OFFSET 0.000000 4.965668 0.016226
												}
											}
										}
									}
								}
								JOINT RightHandPinky1
								{
									OFFSET -20.037003 -1.530334 -10.950259
									CHANNELS 3 Xrotation Yrotation Zrotation
									JOINT RightHandPinky2
									{
										OFFSET -5.254700 0.000000 0.000000
										CHANNELS 3 Xrotation Yrotation Zrotation
										JOINT RightHandPinky3
										{
											OFFSET -4.810204 0.000000 0.000000
											CHANNELS 3 Xrotation Yrotation Zrotation
											JOINT RightHandPinky4
											{
												OFFSET -3.647202 0.000000 0.000000
												CHANNELS 3 Xrotation Yrotation Zrotation
												End Site
												{
													OFFSET 0.000000 3.647186 0.011917
												}
											}
										}
									}
								}
							}
						}
					}
				}
			}
		}
	}
	JOINT LeftUpLeg
	{
		OFFSET 15.427100 -6.655098 0.678600
		CHANNELS 3 Xrotation Yrotation Zrotation
		JOINT LeftLeg
		{
			OFFSET 4.081073 -39.591068 13.024000
			CHANNELS 3 Xrotation Yrotation Zrotation
			JOINT LeftFoot
			{
				OFFSET -4.081074 -37.707932 -15.979700
				CHANNELS 3 Xrotation Yrotation Zrotation
				JOINT LeftToeBase
				{
					OFFSET 5.346399 -15.068900 20.645000
					CHANNELS 3 Xrotation Yrotation Zrotation
					JOINT LeftToe_End
					{
						OFFSET 2.754700 0.931300 11.300900
						CHANNELS 3 Xrotation Yrotation Zrotation
						End Site
						{
							OFFSET 0.000000 11.669021 0.000000
						}
					}
				}
			}
		}
	}
	JOINT RightUpLeg
	{
		OFFSET -15.569500 -6.655098 0.678600
		CHANNELS 3 Xrotation Yrotation Zrotation
		JOINT RightLeg
		{
			OFFSET -4.081825 -39.591045 13.023800
			CHANNELS 3 Xrotation Yrotation Zrotation
			JOINT RightFoot
			{
				OFFSET 4.081824 -37.707954 -15.979600
				CHANNELS 3 Xrotation Yrotation Zrotation
				JOINT RightToeBase
				{
					OFFSET -5.346400 -15.068900 20.645000
					CHANNELS 3 Xrotation Yrotation Zrotation
					JOINT RightToe_End
					{
						OFFSET -2.754700 0.931300 11.300900
						CHANNELS 3 Xrotation Yrotation Zrotation
						End Site
						{
							OFFSET 0.000000 11.669021 0.000000
						}
					}
				}
			}
		}
	}
}
MOTION
Frames: 4
Frame Time: 0.033333
0.567487 49.294006 16.302782 0.145642 0.083617 0.843532 10.434608 0.111884 -1.460380 -0.190621 0.212281 -0.356580 -0.190990 0.245406 -0.302521 -1.001722 -1.282196 0.468238 -8.866531 -4.324686 -5.322089 0.000000 0.000000 -0.000001 0.806579 -15.258574 -7.883240 4.747653 -21.217429 -54.861917 -0.000010 -62.197779 -0.000028 31.066125 4.311711 41.771726 6.565334 1.803489 20.809305 2.711011 20.168712 -24.370151 -5.544704 29.842927 5.074428 0.000000 0.000001 0.000001 -0.207100 2.801221 -26.916329 0.396837 2.121328 -21.189724 0.083243 0.985044 -9.659055 -0.000000 0.000001 0.000000 1.296073 7.323873 -16.512570 0.330558 1.941811 -19.320117 0.232892 1.636964 -16.192960 0.000000 0.000001 -0.000003 1.786142 9.761515 -14.193814 0.206049 1.541561 -15.225245 0.265206 1.744343 -17.288442 -0.000000 0.000000 0.000000 2.041056 10.881647 -13.929735 0.168108 1.394735 -13.744437 0.106698 1.114104 -10.939709 -0.000001 0.000000 -0.000000 3.176469 -4.377891 8.782849 -3.950711 37.253614 63.733991 -0.000001 55.137703 -0.000005 43.526791 4.747951 -36.277665 -9.383123 -1.613267 -17.604898 3.555311 -24.338590 34.656291 -6.601625 -37.499077 -11.166157 -0.000001 -0.000002 0.000001 2.967326 1.010022 13.530016 0.472458 -2.045701 26.006731 0.059758 -0.744398 9.177804 0.000001 0.000001 -0.000002 0.105481 -3.661328 2.530800 0.584829 -2.261413 28.996445 0.020471 -0.436735 5.369262 0.000003 0.000000 -0.000003 0.457738 -7.655375 4.310482 0.107351 -0.995233 12.312780 0.072300 -0.818351 10.098482 0.000001 0.000001 -0.000003 -11.154985 -10.226835 7.170898 0.028934 -0.518897 6.383028 0.028650 -0.516305 6.351257 0.000001 0.000000 -0.000002 -86.313490 -11.441558 18.505472 79.648373 -0.716765 -3.135265 9.212435 -6.270543 -9.760636 -0.061611 0.000003 -0.000001 -0.000000 0.000000 0.000000 -88.060106 12.716771 -14.131625 80.264210 0.667409 1.237296 10.524037 -0.523161 10.742982 -0.175553 -0.000001 0.000003 0.000000 -0.000001 -0.000000 
0.566218 49.302185 16.285995 0.155929 0.092675 0.863922 10.428483 0.112151 -1.464212 -0.203085 0.211221 -0.369482 -0.203473 0.244378 -0.316720 -0.939216 -1.282196 0.452889 -8.804902 -4.307571 -5.297379 -0.000000 -0.000000 -0.000001 0.818596 -15.175729 -7.880421 4.677205 -21.267052 -54.857484 0.000043 -62.138589 0.000032 31.084703 4.273745 41.706337 6.565337 1.803501 20.809300 2.717700 20.164464 -24.371797 -5.549211 29.844785 5.074381 0.000000 0.000003 0.000004 -0.207094 2.801244 -26.916322 0.396850 2.121312 -21.189711 0.083228 0.985053 -9.659064 -0.000001 0.000001 -0.000002 1.296084 7.323891 -16.512563 0.330563 1.941819 -19.320119 0.232889 1.636949 -16.192970 -0.000003 0.000002 -0.000002 1.786141 9.761515 -14.193814 0.206054 1.541559 -15.225240 0.265209 1.744358 -17.288452 0.000002 -0.000000 -0.000002 2.041058 10.881659 -13.929735 0.168104 1.394749 -13.744442 0.106691 1.114123 -10.939713 -0.000004 -0.000001 -0.000001 3.178810 -4.352655 8.852429 -3.982633 37.224162 63.677826 -0.000021 55.056249 0.000035 43.536200 4.793629 -36.259811 -9.400680 -1.620075 -17.634864 3.537694 -24.330298 34.704628 -6.559421 -37.665795 -11.179164 -0.000003 -0.000005 0.000001 2.965353 1.008988 13.564378 0.481245 -2.063589 26.251776 0.058450 -0.736342 9.077321 -0.000000 0.000002 0.000002 0.105478 -3.661357 2.530798 0.584838 -2.261416 28.996445 0.020486 -0.436734 5.369255 -0.000001 -0.000000 0.000001 0.457741 -7.655366 4.310486 0.107352 -0.995246 12.312774 0.072311 -0.818330 10.098485 0.000002 -0.000001 0.000000 -11.170329 -10.176717 7.083506 0.028933 -0.518888 6.383026 0.027748 -0.508157 6.250369 0.000002 0.000000 0.000001 -86.316222 -11.406908 18.488035 79.612890 -0.696769 -3.132104 9.237028 -6.276002 -9.758764 0.053184 0.000008 -0.038312 -0.000000 -0.000000 0.000000 -88.075904 12.729664 -14.125387 80.247141 0.656749 1.221413 10.546227 -0.522819 10.744273 -0.125447 -0.000002 0.000003 0.000000 -0.000000 -0.000000 
0.557868 49.309326 16.253979 0.230681 0.099095 0.947146 10.403455 0.105673 -1.485415 -0.256116 0.209446 -0.414423 -0.256603 0.241275 -0.362215 -0.794115 -1.282196 0.453243 -8.712385 -4.304189 -5.262656 -0.000000 -0.000000 -0.000000 0.828387 -15.159752 -7.853338 4.679859 -21.182732 -54.881625 0.000017 -62.221937 0.000022 31.157428 4.262521 41.604216 6.565332 1.803485 20.809291 2.737289 20.152012 -24.376614 -5.566417 29.851857 5.074214 0.000001 -0.000006 0.000000 -0.207101 2.801212 -26.916326 0.396851 2.121347 -21.189716 0.083233 0.985037 -9.659056 0.000000 -0.000001 0.000001 1.296075 7.323866 -16.512577 0.330557 1.941801 -19.320116 0.232875 1.636955 -16.192968 0.000000 0.000000 -0.000002 1.786140 9.761501 -14.193822 0.206049 1.541555 -15.225236 0.265211 1.744379 -17.288448 -0.000001 -0.000000 -0.000001 2.041056 10.881631 -13.929741 0.168102 1.394746 -13.744446 0.106695 1.114128 -10.939709 -0.000001 0.000000 -0.000004 3.187495 -4.401026 8.867290 -4.034686 37.255841 63.732099 -0.000025 54.973054 0.000033 43.546400 4.834912 -36.262615 -9.444156 -1.636269 -17.701197 3.502655 -24.306977 34.816083 -6.462631 -38.032160 -11.201241 -0.000005 -0.000002 -0.000001 2.960867 1.006592 13.642566 0.500806 -2.102754 26.789609 0.055566 -0.717985 8.849372 0.000000 0.000001 0.000001 0.105614 -3.661804 2.536268 0.584831 -2.261398 28.996448 0.020480 -0.436744 5.369252 0.000000 0.000000 -0.000000 0.457739 -7.655378 4.310480 0.107346 -0.995231 12.312782 0.072308 -0.818348 10.098484 0.000001 -0.000000 -0.000000 -11.204674 -10.062734 6.885735 0.028933 -0.518893 6.383035 0.025751 -0.489567 6.021153 0.000001 0.000001 -0.000001 -86.355359 -11.350396 18.437631 79.543591 -0.633909 -3.136501 9.277107 -6.287850 -9.789263 0.069392 0.000025 -0.050084 0.000000 -0.000001 0.000000 -88.205063 12.768380 -14.140221 80.217075 0.682550 1.209342 10.618857 -0.529266 10.702905 -0.116477 -0.000003 0.000003 -0.000000 -0.000001 -0.000000 
0.545976 49.339897 16.212660 0.477533 0.180082 1.050922 10.373552 0.085303 -1.513024 -0.322548 0.196591 -0.472398 -0.323227 0.225854 -0.419678 -0.590415 -1.287162 0.463046 -8.790227 -4.324341 -5.260549 -0.000000 -0.000001 -0.000000 0.852325 -15.363563 -7.765830 4.838125 -20.878746 -54.879429 -0.000027 -62.653120 -0.000033 31.224900 4.380896 41.581293 6.565331 1.803495 20.809297 2.766003 20.133745 -24.383695 -5.597083 29.864476 5.073929 -0.000001 -0.000002 0.000000 -0.207096 2.801230 -26.916312 0.396841 2.121343 -21.189718 0.083226 0.985039 -9.659069 0.000001 -0.000002 0.000002 1.296072 7.323891 -16.512566 0.330559 1.941808 -19.320119 0.232884 1.636941 -16.192960 -0.000000 0.000000 0.000002 1.786140 9.761511 -14.193814 0.206053 1.541572 -15.225229 0.265216 1.744351 -17.288457 -0.000001 0.000001 -0.000002 2.041053 10.881648 -13.929735 0.168105 1.394743 -13.744437 0.106695 1.114131 -10.939709 0.000001 -0.000002 0.000001 3.196562 -4.582525 8.802676 -3.780464 37.361463 63.708992 0.000039 55.394511 -0.000064 43.534909 4.658406 -36.330425 -9.508796 -1.660356 -17.801462 3.459986 -24.262908 34.986309 -6.309876 -38.590357 -11.226317 -0.000002 0.000000 0.000004 2.956535 0.992849 13.760508 0.531256 -2.161977 27.608147 0.051351 -0.690390 8.506581 0.000001 -0.000001 -0.000003 0.106042 -3.663229 2.553905 0.584837 -2.261380 28.996458 0.020473 -0.436732 5.369250 -0.000002 -0.000002 -0.000001 0.457738 -7.655389 4.310480 0.107357 -0.995236 12.312770 0.072309 -0.818330 10.098488 0.000002 -0.000001 0.000001 -11.244894 -9.889674 6.589919 0.028930 -0.518891 6.383035 0.022893 -0.461634 5.676314 0.000001 -0.000000 0.000001 -86.668803 -11.237310 18.239433 79.447743 -0.445379 -3.107498 9.474717 -6.358533 -9.618596 -1.045635 -0.000001 -0.000003 0.000000 -0.000001 -0.000000 -88.509601 12.824933 -14.326836 80.121186 0.789473 1.326183 10.809976 -0.529929 10.498113 -0.540748 -0.000005 -0.000001 -0.000000 -0.000000 -0.000000 
